<mxfile host="app.diagrams.net" modified="2024-01-30T11:55:44.888Z" agent="Mozilla/5.0 (Windows NT 10.0; Win64; x64; rv:122.0) Gecko/20100101 Firefox/122.0" etag="yGyvhIsJhTBcs3ZCG6kL" version="22.1.21" type="device">
  <diagram name="Page-1" id="MINnYG7Jh-Jn3ycwbPV-">
    <mxGraphModel dx="1751" dy="800" grid="1" gridSize="10" guides="1" tooltips="1" connect="1" arrows="1" fold="1" page="1" pageScale="1" pageWidth="1390" pageHeight="980" math="0" shadow="0">
      <root>
        <mxCell id="0" />
        <mxCell id="1" parent="0" />
        <mxCell id="CIGHaO0pslwHIIJhBkGo-1" value="User" style="whiteSpace=wrap;html=1;align=center;fillColor=#dae8fc;strokeColor=#6c8ebf;" parent="1" vertex="1">
          <mxGeometry x="-420" y="600" width="100" height="40" as="geometry" />
        </mxCell>
        <mxCell id="CIGHaO0pslwHIIJhBkGo-5" value="Name" style="ellipse;whiteSpace=wrap;html=1;align=center;fillColor=#fff2cc;strokeColor=#d6b656;" parent="1" vertex="1">
          <mxGeometry x="-160" y="490" width="100" height="40" as="geometry" />
        </mxCell>
        <mxCell id="CIGHaO0pslwHIIJhBkGo-6" value="Age" style="ellipse;whiteSpace=wrap;html=1;align=center;fillColor=#fff2cc;strokeColor=#d6b656;" parent="1" vertex="1">
          <mxGeometry x="-180" y="430" width="100" height="40" as="geometry" />
        </mxCell>
        <mxCell id="CIGHaO0pslwHIIJhBkGo-7" value="Email" style="ellipse;whiteSpace=wrap;html=1;align=center;fillColor=#fff2cc;strokeColor=#d6b656;" parent="1" vertex="1">
          <mxGeometry x="-350" y="380" width="100" height="40" as="geometry" />
        </mxCell>
        <mxCell id="CIGHaO0pslwHIIJhBkGo-8" value="RemainAttempts" style="ellipse;whiteSpace=wrap;html=1;align=center;fillColor=#fff2cc;strokeColor=#d6b656;" parent="1" vertex="1">
          <mxGeometry x="-710" y="540" width="100" height="40" as="geometry" />
        </mxCell>
        <mxCell id="CIGHaO0pslwHIIJhBkGo-9" value="Password" style="ellipse;whiteSpace=wrap;html=1;align=center;fillColor=#fff2cc;strokeColor=#d6b656;" parent="1" vertex="1">
          <mxGeometry x="-670" y="420" width="100" height="40" as="geometry" />
        </mxCell>
        <mxCell id="CIGHaO0pslwHIIJhBkGo-11" value="Country" style="ellipse;whiteSpace=wrap;html=1;align=center;fillColor=#fff2cc;strokeColor=#d6b656;" parent="1" vertex="1">
          <mxGeometry x="-240" y="390" width="100" height="40" as="geometry" />
        </mxCell>
        <mxCell id="CIGHaO0pslwHIIJhBkGo-12" value="ID_sub" style="ellipse;whiteSpace=wrap;html=1;align=center;fillColor=#fff2cc;strokeColor=#d6b656;" parent="1" vertex="1">
          <mxGeometry x="-705" y="480" width="100" height="40" as="geometry" />
        </mxCell>
        <mxCell id="CIGHaO0pslwHIIJhBkGo-22" value="" style="endArrow=none;html=1;rounded=0;" parent="1" source="CIGHaO0pslwHIIJhBkGo-8" target="CIGHaO0pslwHIIJhBkGo-1" edge="1">
          <mxGeometry relative="1" as="geometry">
            <mxPoint x="-490" y="730" as="sourcePoint" />
            <mxPoint x="-330" y="730" as="targetPoint" />
          </mxGeometry>
        </mxCell>
        <mxCell id="CIGHaO0pslwHIIJhBkGo-23" value="" style="endArrow=none;html=1;rounded=0;" parent="1" source="CIGHaO0pslwHIIJhBkGo-12" target="CIGHaO0pslwHIIJhBkGo-1" edge="1">
          <mxGeometry relative="1" as="geometry">
            <mxPoint x="-530" y="610" as="sourcePoint" />
            <mxPoint x="-370" y="610" as="targetPoint" />
          </mxGeometry>
        </mxCell>
        <mxCell id="CIGHaO0pslwHIIJhBkGo-24" value="" style="endArrow=none;html=1;rounded=0;" parent="1" source="CIGHaO0pslwHIIJhBkGo-9" target="CIGHaO0pslwHIIJhBkGo-1" edge="1">
          <mxGeometry relative="1" as="geometry">
            <mxPoint x="-480" y="569.5" as="sourcePoint" />
            <mxPoint x="-320" y="569.5" as="targetPoint" />
          </mxGeometry>
        </mxCell>
        <mxCell id="CIGHaO0pslwHIIJhBkGo-25" value="" style="endArrow=none;html=1;rounded=0;" parent="1" source="CIGHaO0pslwHIIJhBkGo-7" target="CIGHaO0pslwHIIJhBkGo-1" edge="1">
          <mxGeometry relative="1" as="geometry">
            <mxPoint x="-430" y="450" as="sourcePoint" />
            <mxPoint x="-270" y="450" as="targetPoint" />
          </mxGeometry>
        </mxCell>
        <mxCell id="CIGHaO0pslwHIIJhBkGo-26" value="" style="endArrow=none;html=1;rounded=0;" parent="1" source="CIGHaO0pslwHIIJhBkGo-1" target="CIGHaO0pslwHIIJhBkGo-11" edge="1">
          <mxGeometry relative="1" as="geometry">
            <mxPoint x="-310" y="480" as="sourcePoint" />
            <mxPoint x="-150" y="480" as="targetPoint" />
          </mxGeometry>
        </mxCell>
        <mxCell id="CIGHaO0pslwHIIJhBkGo-27" value="" style="endArrow=none;html=1;rounded=0;" parent="1" source="CIGHaO0pslwHIIJhBkGo-1" target="CIGHaO0pslwHIIJhBkGo-5" edge="1">
          <mxGeometry relative="1" as="geometry">
            <mxPoint x="-200" y="529.5" as="sourcePoint" />
            <mxPoint x="-198.41106397986823" y="562.8036879932897" as="targetPoint" />
          </mxGeometry>
        </mxCell>
        <mxCell id="CIGHaO0pslwHIIJhBkGo-28" value="" style="endArrow=none;html=1;rounded=0;" parent="1" source="CIGHaO0pslwHIIJhBkGo-1" target="KiJpQxPRMV-0YFwfvy5l-11" edge="1">
          <mxGeometry relative="1" as="geometry">
            <mxPoint x="-405" y="750" as="sourcePoint" />
            <mxPoint x="-156.0483625534264" y="582.7927998167336" as="targetPoint" />
          </mxGeometry>
        </mxCell>
        <mxCell id="CIGHaO0pslwHIIJhBkGo-29" value="" style="endArrow=none;html=1;rounded=0;" parent="1" source="CIGHaO0pslwHIIJhBkGo-1" target="CIGHaO0pslwHIIJhBkGo-6" edge="1">
          <mxGeometry relative="1" as="geometry">
            <mxPoint x="-390" y="710" as="sourcePoint" />
            <mxPoint x="-230" y="710" as="targetPoint" />
          </mxGeometry>
        </mxCell>
        <mxCell id="CIGHaO0pslwHIIJhBkGo-30" value="AttemptHistory" style="ellipse;whiteSpace=wrap;html=1;align=center;fillColor=#fff2cc;strokeColor=#d6b656;" parent="1" vertex="1">
          <mxGeometry x="-710" y="595" width="100" height="40" as="geometry" />
        </mxCell>
        <mxCell id="CIGHaO0pslwHIIJhBkGo-31" value="" style="endArrow=none;html=1;rounded=0;" parent="1" source="CIGHaO0pslwHIIJhBkGo-30" target="CIGHaO0pslwHIIJhBkGo-1" edge="1">
          <mxGeometry relative="1" as="geometry">
            <mxPoint x="-290" y="610" as="sourcePoint" />
            <mxPoint x="-130" y="610" as="targetPoint" />
          </mxGeometry>
        </mxCell>
        <mxCell id="CIGHaO0pslwHIIJhBkGo-32" value="Subscription" style="whiteSpace=wrap;html=1;align=center;fillColor=#dae8fc;strokeColor=#6c8ebf;" parent="1" vertex="1">
          <mxGeometry x="-420" y="1030" width="100" height="40" as="geometry" />
        </mxCell>
        <mxCell id="CIGHaO0pslwHIIJhBkGo-33" value="HistoryLimit" style="ellipse;whiteSpace=wrap;html=1;align=center;fillColor=#fff2cc;strokeColor=#d6b656;" parent="1" vertex="1">
          <mxGeometry x="-609.9999999999999" y="1040" width="100" height="40" as="geometry" />
        </mxCell>
        <mxCell id="CIGHaO0pslwHIIJhBkGo-34" value="Sub_Start" style="ellipse;whiteSpace=wrap;html=1;align=center;fillColor=#fff2cc;strokeColor=#d6b656;" parent="1" vertex="1">
          <mxGeometry x="-460" y="380" width="100" height="40" as="geometry" />
        </mxCell>
        <mxCell id="CIGHaO0pslwHIIJhBkGo-35" value="Price" style="ellipse;whiteSpace=wrap;html=1;align=center;fillColor=#fff2cc;strokeColor=#d6b656;" parent="1" vertex="1">
          <mxGeometry x="-230" y="1130" width="100" height="40" as="geometry" />
        </mxCell>
        <mxCell id="CIGHaO0pslwHIIJhBkGo-36" value="PlanName" style="ellipse;whiteSpace=wrap;html=1;align=center;fillColor=#fff2cc;strokeColor=#d6b656;" parent="1" vertex="1">
          <mxGeometry x="-200" y="1075" width="100" height="40" as="geometry" />
        </mxCell>
        <mxCell id="CIGHaO0pslwHIIJhBkGo-37" value="AttemptsLimit" style="ellipse;whiteSpace=wrap;html=1;align=center;fillColor=#fff2cc;strokeColor=#d6b656;" parent="1" vertex="1">
          <mxGeometry x="-310" y="1170" width="100" height="40" as="geometry" />
        </mxCell>
        <mxCell id="CIGHaO0pslwHIIJhBkGo-40" value="" style="endArrow=none;html=1;rounded=0;" parent="1" source="CIGHaO0pslwHIIJhBkGo-32" target="CIGHaO0pslwHIIJhBkGo-50" edge="1">
          <mxGeometry relative="1" as="geometry">
            <mxPoint x="-522.8199999999999" y="1300" as="sourcePoint" />
            <mxPoint x="-487.46466094067256" y="1095.857864376269" as="targetPoint" />
          </mxGeometry>
        </mxCell>
        <mxCell id="CIGHaO0pslwHIIJhBkGo-41" value="" style="endArrow=none;html=1;rounded=0;" parent="1" source="CIGHaO0pslwHIIJhBkGo-32" target="CIGHaO0pslwHIIJhBkGo-37" edge="1">
          <mxGeometry relative="1" as="geometry">
            <mxPoint x="-302.82" y="1230" as="sourcePoint" />
            <mxPoint x="-142.82" y="1230" as="targetPoint" />
          </mxGeometry>
        </mxCell>
        <mxCell id="CIGHaO0pslwHIIJhBkGo-43" value="" style="endArrow=none;html=1;rounded=0;" parent="1" source="CIGHaO0pslwHIIJhBkGo-1" target="CIGHaO0pslwHIIJhBkGo-34" edge="1">
          <mxGeometry relative="1" as="geometry">
            <mxPoint x="-342.82" y="1270" as="sourcePoint" />
            <mxPoint x="-182.82" y="1270" as="targetPoint" />
          </mxGeometry>
        </mxCell>
        <mxCell id="CIGHaO0pslwHIIJhBkGo-44" value="" style="endArrow=none;html=1;rounded=0;" parent="1" source="CIGHaO0pslwHIIJhBkGo-32" target="CIGHaO0pslwHIIJhBkGo-35" edge="1">
          <mxGeometry relative="1" as="geometry">
            <mxPoint x="-152.82" y="1179" as="sourcePoint" />
            <mxPoint x="7.180000000000064" y="1179" as="targetPoint" />
          </mxGeometry>
        </mxCell>
        <mxCell id="CIGHaO0pslwHIIJhBkGo-45" value="" style="endArrow=none;html=1;rounded=0;" parent="1" source="CIGHaO0pslwHIIJhBkGo-1" target="CIGHaO0pslwHIIJhBkGo-49" edge="1">
          <mxGeometry relative="1" as="geometry">
            <mxPoint x="-512.8199999999999" y="1250" as="sourcePoint" />
            <mxPoint x="-447.26804697926906" y="1140.9920574191065" as="targetPoint" />
          </mxGeometry>
        </mxCell>
        <mxCell id="CIGHaO0pslwHIIJhBkGo-47" value="" style="endArrow=none;html=1;rounded=0;" parent="1" source="CIGHaO0pslwHIIJhBkGo-32" target="CIGHaO0pslwHIIJhBkGo-33" edge="1">
          <mxGeometry relative="1" as="geometry">
            <mxPoint x="-292.82" y="1310" as="sourcePoint" />
            <mxPoint x="-132.82" y="1310" as="targetPoint" />
          </mxGeometry>
        </mxCell>
        <mxCell id="CIGHaO0pslwHIIJhBkGo-48" value="" style="endArrow=none;html=1;rounded=0;" parent="1" source="CIGHaO0pslwHIIJhBkGo-32" target="CIGHaO0pslwHIIJhBkGo-36" edge="1">
          <mxGeometry relative="1" as="geometry">
            <mxPoint x="-302.82" y="1230" as="sourcePoint" />
            <mxPoint x="-142.82" y="1230" as="targetPoint" />
          </mxGeometry>
        </mxCell>
        <mxCell id="CIGHaO0pslwHIIJhBkGo-49" value="Sub_End" style="ellipse;whiteSpace=wrap;html=1;align=center;dashed=1;fillColor=#fff2cc;strokeColor=#d6b656;" parent="1" vertex="1">
          <mxGeometry x="-579.9999999999999" y="380" width="100" height="40" as="geometry" />
        </mxCell>
        <mxCell id="CIGHaO0pslwHIIJhBkGo-50" value="SizeLimit" style="ellipse;shape=doubleEllipse;margin=3;whiteSpace=wrap;html=1;align=center;fillColor=#fff2cc;strokeColor=#d6b656;" parent="1" vertex="1">
          <mxGeometry x="-599.9999999999999" y="1105" width="100" height="40" as="geometry" />
        </mxCell>
        <mxCell id="CIGHaO0pslwHIIJhBkGo-53" value="TextLength" style="ellipse;whiteSpace=wrap;html=1;align=center;fillColor=#fff2cc;strokeColor=#d6b656;" parent="1" vertex="1">
          <mxGeometry x="-695" y="1150" width="80" height="30" as="geometry" />
        </mxCell>
        <mxCell id="CIGHaO0pslwHIIJhBkGo-54" value="ImageSize" style="ellipse;whiteSpace=wrap;html=1;align=center;fillColor=#fff2cc;strokeColor=#d6b656;" parent="1" vertex="1">
          <mxGeometry x="-700" y="1100" width="80" height="30" as="geometry" />
        </mxCell>
        <mxCell id="CIGHaO0pslwHIIJhBkGo-56" value="" style="endArrow=none;html=1;rounded=0;" parent="1" source="CIGHaO0pslwHIIJhBkGo-54" target="CIGHaO0pslwHIIJhBkGo-50" edge="1">
          <mxGeometry relative="1" as="geometry">
            <mxPoint x="-593.229185218149" y="1107.1400440422622" as="sourcePoint" />
            <mxPoint x="-142.82" y="1230" as="targetPoint" />
          </mxGeometry>
        </mxCell>
        <mxCell id="CIGHaO0pslwHIIJhBkGo-57" value="" style="endArrow=none;html=1;rounded=0;" parent="1" source="CIGHaO0pslwHIIJhBkGo-53" target="CIGHaO0pslwHIIJhBkGo-50" edge="1">
          <mxGeometry relative="1" as="geometry">
            <mxPoint x="-607.178325259408" y="1143.4874113409587" as="sourcePoint" />
            <mxPoint x="-142.82" y="1230" as="targetPoint" />
          </mxGeometry>
        </mxCell>
        <mxCell id="CIGHaO0pslwHIIJhBkGo-58" value="Admin" style="whiteSpace=wrap;html=1;align=center;direction=west;fillColor=#dae8fc;strokeColor=#6c8ebf;" parent="1" vertex="1">
          <mxGeometry x="390" y="1040" width="100" height="40" as="geometry" />
        </mxCell>
        <mxCell id="CIGHaO0pslwHIIJhBkGo-59" value="Password" style="ellipse;whiteSpace=wrap;html=1;align=center;direction=west;fillColor=#fff2cc;strokeColor=#d6b656;" parent="1" vertex="1">
          <mxGeometry x="280" y="1110" width="100" height="40" as="geometry" />
        </mxCell>
        <mxCell id="CIGHaO0pslwHIIJhBkGo-60" value="Email" style="ellipse;whiteSpace=wrap;html=1;align=center;direction=west;fillColor=#fff2cc;strokeColor=#d6b656;" parent="1" vertex="1">
          <mxGeometry x="220" y="1070" width="100" height="40" as="geometry" />
        </mxCell>
        <mxCell id="CIGHaO0pslwHIIJhBkGo-61" value="Name" style="ellipse;whiteSpace=wrap;html=1;align=center;direction=west;fillColor=#fff2cc;strokeColor=#d6b656;" parent="1" vertex="1">
          <mxGeometry x="530" y="1060" width="100" height="40" as="geometry" />
        </mxCell>
        <mxCell id="CIGHaO0pslwHIIJhBkGo-63" value="" style="endArrow=none;html=1;rounded=0;" parent="1" source="CIGHaO0pslwHIIJhBkGo-58" target="CIGHaO0pslwHIIJhBkGo-59" edge="1">
          <mxGeometry relative="1" as="geometry">
            <mxPoint x="250" y="1190" as="sourcePoint" />
            <mxPoint x="410" y="1190" as="targetPoint" />
          </mxGeometry>
        </mxCell>
        <mxCell id="CIGHaO0pslwHIIJhBkGo-64" value="" style="endArrow=none;html=1;rounded=0;" parent="1" source="CIGHaO0pslwHIIJhBkGo-58" target="CIGHaO0pslwHIIJhBkGo-60" edge="1">
          <mxGeometry relative="1" as="geometry">
            <mxPoint x="250" y="1190" as="sourcePoint" />
            <mxPoint x="337.4129559013604" y="1073.650050548925" as="targetPoint" />
          </mxGeometry>
        </mxCell>
        <mxCell id="CIGHaO0pslwHIIJhBkGo-65" value="" style="endArrow=none;html=1;rounded=0;" parent="1" source="CIGHaO0pslwHIIJhBkGo-58" target="CIGHaO0pslwHIIJhBkGo-61" edge="1">
          <mxGeometry relative="1" as="geometry">
            <mxPoint x="250" y="1190" as="sourcePoint" />
            <mxPoint x="410" y="1190" as="targetPoint" />
          </mxGeometry>
        </mxCell>
        <mxCell id="CIGHaO0pslwHIIJhBkGo-66" value="" style="endArrow=none;html=1;rounded=0;" parent="1" source="CIGHaO0pslwHIIJhBkGo-58" target="KiJpQxPRMV-0YFwfvy5l-9" edge="1">
          <mxGeometry relative="1" as="geometry">
            <mxPoint x="440" y="1100" as="sourcePoint" />
            <mxPoint x="532.9621204343384" y="1118.1764304924773" as="targetPoint" />
          </mxGeometry>
        </mxCell>
        <mxCell id="CIGHaO0pslwHIIJhBkGo-67" value="DataHistory" style="whiteSpace=wrap;html=1;align=center;fillColor=#dae8fc;strokeColor=#6c8ebf;" parent="1" vertex="1">
          <mxGeometry x="390" y="600" width="100" height="40" as="geometry" />
        </mxCell>
        <mxCell id="CIGHaO0pslwHIIJhBkGo-70" value="MediaSIze" style="ellipse;whiteSpace=wrap;html=1;align=center;fillColor=#fff2cc;strokeColor=#d6b656;" parent="1" vertex="1">
          <mxGeometry x="265" y="500" width="100" height="40" as="geometry" />
        </mxCell>
        <mxCell id="CIGHaO0pslwHIIJhBkGo-71" value="ModelResult" style="ellipse;whiteSpace=wrap;html=1;align=center;fillColor=#fff2cc;strokeColor=#d6b656;" parent="1" vertex="1">
          <mxGeometry x="230" y="560" width="100" height="40" as="geometry" />
        </mxCell>
        <mxCell id="CIGHaO0pslwHIIJhBkGo-72" value="Media" style="ellipse;whiteSpace=wrap;html=1;align=center;fillColor=#fff2cc;strokeColor=#d6b656;" parent="1" vertex="1">
          <mxGeometry x="390" y="490" width="100" height="40" as="geometry" />
        </mxCell>
        <mxCell id="CIGHaO0pslwHIIJhBkGo-73" value="AttemptTime" style="ellipse;whiteSpace=wrap;html=1;align=center;fillColor=#fff2cc;strokeColor=#d6b656;" parent="1" vertex="1">
          <mxGeometry x="540" y="550" width="100" height="40" as="geometry" />
        </mxCell>
        <mxCell id="CIGHaO0pslwHIIJhBkGo-74" value="MediaName" style="ellipse;whiteSpace=wrap;html=1;align=center;fillColor=#fff2cc;strokeColor=#d6b656;" parent="1" vertex="1">
          <mxGeometry x="500" y="500" width="100" height="40" as="geometry" />
        </mxCell>
        <mxCell id="CIGHaO0pslwHIIJhBkGo-75" value="" style="endArrow=none;html=1;rounded=0;" parent="1" source="CIGHaO0pslwHIIJhBkGo-67" target="CIGHaO0pslwHIIJhBkGo-70" edge="1">
          <mxGeometry relative="1" as="geometry">
            <mxPoint x="240" y="530" as="sourcePoint" />
            <mxPoint x="400" y="530" as="targetPoint" />
          </mxGeometry>
        </mxCell>
        <mxCell id="CIGHaO0pslwHIIJhBkGo-76" value="" style="endArrow=none;html=1;rounded=0;" parent="1" source="CIGHaO0pslwHIIJhBkGo-67" target="CIGHaO0pslwHIIJhBkGo-71" edge="1">
          <mxGeometry relative="1" as="geometry">
            <mxPoint x="408.38177126859364" y="440" as="sourcePoint" />
            <mxPoint x="395" y="330" as="targetPoint" />
          </mxGeometry>
        </mxCell>
        <mxCell id="CIGHaO0pslwHIIJhBkGo-77" value="" style="endArrow=none;html=1;rounded=0;exitX=0.5;exitY=0;exitDx=0;exitDy=0;" parent="1" source="CIGHaO0pslwHIIJhBkGo-67" target="CIGHaO0pslwHIIJhBkGo-72" edge="1">
          <mxGeometry relative="1" as="geometry">
            <mxPoint x="435" y="440" as="sourcePoint" />
            <mxPoint x="395" y="330" as="targetPoint" />
          </mxGeometry>
        </mxCell>
        <mxCell id="CIGHaO0pslwHIIJhBkGo-78" value="" style="endArrow=none;html=1;rounded=0;" parent="1" source="CIGHaO0pslwHIIJhBkGo-67" target="CIGHaO0pslwHIIJhBkGo-73" edge="1">
          <mxGeometry relative="1" as="geometry">
            <mxPoint x="459.436173874863" y="440" as="sourcePoint" />
            <mxPoint x="395" y="330" as="targetPoint" />
          </mxGeometry>
        </mxCell>
        <mxCell id="CIGHaO0pslwHIIJhBkGo-79" value="" style="endArrow=none;html=1;rounded=0;" parent="1" source="CIGHaO0pslwHIIJhBkGo-67" target="CIGHaO0pslwHIIJhBkGo-74" edge="1">
          <mxGeometry relative="1" as="geometry">
            <mxPoint x="240" y="530" as="sourcePoint" />
            <mxPoint x="400" y="530" as="targetPoint" />
          </mxGeometry>
        </mxCell>
        <mxCell id="CIGHaO0pslwHIIJhBkGo-80" value="has" style="shape=rhombus;perimeter=rhombusPerimeter;whiteSpace=wrap;html=1;align=center;fillColor=#ffe6cc;strokeColor=#d79b00;" parent="1" vertex="1">
          <mxGeometry x="-430" y="810" width="120" height="60" as="geometry" />
        </mxCell>
        <mxCell id="CIGHaO0pslwHIIJhBkGo-84" value="" style="shape=link;html=1;rounded=0;" parent="1" source="CIGHaO0pslwHIIJhBkGo-80" target="CIGHaO0pslwHIIJhBkGo-32" edge="1">
          <mxGeometry relative="1" as="geometry">
            <mxPoint x="-132.82" y="1010" as="sourcePoint" />
            <mxPoint x="27.180000000000064" y="1010" as="targetPoint" />
          </mxGeometry>
        </mxCell>
        <mxCell id="CIGHaO0pslwHIIJhBkGo-85" value="1" style="resizable=0;html=1;whiteSpace=wrap;align=right;verticalAlign=bottom;" parent="CIGHaO0pslwHIIJhBkGo-84" connectable="0" vertex="1">
          <mxGeometry x="1" relative="1" as="geometry">
            <mxPoint x="-10" y="-150" as="offset" />
          </mxGeometry>
        </mxCell>
        <mxCell id="CIGHaO0pslwHIIJhBkGo-87" value="has" style="shape=rhombus;perimeter=rhombusPerimeter;whiteSpace=wrap;html=1;align=center;fillColor=#ffe6cc;strokeColor=#d79b00;" parent="1" vertex="1">
          <mxGeometry x="-10" y="590" width="120" height="60" as="geometry" />
        </mxCell>
        <mxCell id="CIGHaO0pslwHIIJhBkGo-90" value="" style="endArrow=none;html=1;rounded=0;entryX=0.5;entryY=0;entryDx=0;entryDy=0;" parent="1" source="CIGHaO0pslwHIIJhBkGo-1" target="CIGHaO0pslwHIIJhBkGo-80" edge="1">
          <mxGeometry relative="1" as="geometry">
            <mxPoint x="-20" y="1030" as="sourcePoint" />
            <mxPoint x="140" y="1030" as="targetPoint" />
          </mxGeometry>
        </mxCell>
        <mxCell id="CIGHaO0pslwHIIJhBkGo-91" value="N" style="resizable=0;html=1;whiteSpace=wrap;align=right;verticalAlign=bottom;" parent="CIGHaO0pslwHIIJhBkGo-90" connectable="0" vertex="1">
          <mxGeometry x="1" relative="1" as="geometry">
            <mxPoint x="-10" y="9" as="offset" />
          </mxGeometry>
        </mxCell>
        <mxCell id="CIGHaO0pslwHIIJhBkGo-92" value="" style="endArrow=none;html=1;rounded=0;" parent="1" source="CIGHaO0pslwHIIJhBkGo-1" target="CIGHaO0pslwHIIJhBkGo-87" edge="1">
          <mxGeometry relative="1" as="geometry">
            <mxPoint x="-20" y="1030" as="sourcePoint" />
            <mxPoint x="140" y="1030" as="targetPoint" />
          </mxGeometry>
        </mxCell>
        <mxCell id="CIGHaO0pslwHIIJhBkGo-93" value="N" style="resizable=0;html=1;whiteSpace=wrap;align=right;verticalAlign=bottom;" parent="CIGHaO0pslwHIIJhBkGo-92" connectable="0" vertex="1">
          <mxGeometry x="1" relative="1" as="geometry" />
        </mxCell>
        <mxCell id="CIGHaO0pslwHIIJhBkGo-94" value="" style="endArrow=none;html=1;rounded=0;" parent="1" source="CIGHaO0pslwHIIJhBkGo-67" target="CIGHaO0pslwHIIJhBkGo-87" edge="1">
          <mxGeometry relative="1" as="geometry">
            <mxPoint x="-20" y="1030" as="sourcePoint" />
            <mxPoint x="140" y="1030" as="targetPoint" />
          </mxGeometry>
        </mxCell>
        <mxCell id="CIGHaO0pslwHIIJhBkGo-95" value="1" style="resizable=0;html=1;whiteSpace=wrap;align=right;verticalAlign=bottom;" parent="CIGHaO0pslwHIIJhBkGo-94" connectable="0" vertex="1">
          <mxGeometry x="1" relative="1" as="geometry" />
        </mxCell>
        <mxCell id="CIGHaO0pslwHIIJhBkGo-96" value="Manages" style="shape=rhombus;perimeter=rhombusPerimeter;whiteSpace=wrap;html=1;align=center;fillColor=#ffe6cc;strokeColor=#d79b00;" parent="1" vertex="1">
          <mxGeometry x="-30" y="800" width="120" height="60" as="geometry" />
        </mxCell>
        <mxCell id="CIGHaO0pslwHIIJhBkGo-100" value="" style="endArrow=none;html=1;rounded=0;" parent="1" source="CIGHaO0pslwHIIJhBkGo-58" target="CIGHaO0pslwHIIJhBkGo-96" edge="1">
          <mxGeometry relative="1" as="geometry">
            <mxPoint x="-200" y="860" as="sourcePoint" />
            <mxPoint x="-40" y="860" as="targetPoint" />
          </mxGeometry>
        </mxCell>
        <mxCell id="CIGHaO0pslwHIIJhBkGo-101" value="N" style="resizable=0;html=1;whiteSpace=wrap;align=right;verticalAlign=bottom;" parent="CIGHaO0pslwHIIJhBkGo-100" connectable="0" vertex="1">
          <mxGeometry x="1" relative="1" as="geometry">
            <mxPoint x="32" y="14" as="offset" />
          </mxGeometry>
        </mxCell>
        <mxCell id="CIGHaO0pslwHIIJhBkGo-102" value="" style="endArrow=none;html=1;rounded=0;" parent="1" source="CIGHaO0pslwHIIJhBkGo-1" target="CIGHaO0pslwHIIJhBkGo-96" edge="1">
          <mxGeometry relative="1" as="geometry">
            <mxPoint x="-250" y="860" as="sourcePoint" />
            <mxPoint x="-90" y="860" as="targetPoint" />
          </mxGeometry>
        </mxCell>
        <mxCell id="CIGHaO0pslwHIIJhBkGo-103" value="M" style="resizable=0;html=1;whiteSpace=wrap;align=right;verticalAlign=bottom;" parent="CIGHaO0pslwHIIJhBkGo-102" connectable="0" vertex="1">
          <mxGeometry x="1" relative="1" as="geometry" />
        </mxCell>
        <mxCell id="CIGHaO0pslwHIIJhBkGo-104" value="Permissions" style="ellipse;whiteSpace=wrap;html=1;align=center;direction=west;fillColor=#fff2cc;strokeColor=#d6b656;" parent="1" vertex="1">
          <mxGeometry x="390" y="1140" width="100" height="40" as="geometry" />
        </mxCell>
        <mxCell id="CIGHaO0pslwHIIJhBkGo-105" value="" style="endArrow=none;html=1;rounded=0;" parent="1" source="CIGHaO0pslwHIIJhBkGo-104" target="CIGHaO0pslwHIIJhBkGo-58" edge="1">
          <mxGeometry relative="1" as="geometry">
            <mxPoint x="-160" y="1320" as="sourcePoint" />
            <mxPoint y="1320" as="targetPoint" />
          </mxGeometry>
        </mxCell>
        <mxCell id="CIGHaO0pslwHIIJhBkGo-107" value="Controls" style="shape=rhombus;perimeter=rhombusPerimeter;whiteSpace=wrap;html=1;align=center;fillColor=#ffe6cc;strokeColor=#d79b00;" parent="1" vertex="1">
          <mxGeometry x="-50" y="1030" width="120" height="60" as="geometry" />
        </mxCell>
        <mxCell id="CIGHaO0pslwHIIJhBkGo-109" value="" style="endArrow=none;html=1;rounded=0;" parent="1" source="CIGHaO0pslwHIIJhBkGo-32" target="CIGHaO0pslwHIIJhBkGo-107" edge="1">
          <mxGeometry relative="1" as="geometry">
            <mxPoint x="-237" y="830" as="sourcePoint" />
            <mxPoint x="110" y="995" as="targetPoint" />
          </mxGeometry>
        </mxCell>
        <mxCell id="CIGHaO0pslwHIIJhBkGo-110" value="M" style="resizable=0;html=1;whiteSpace=wrap;align=right;verticalAlign=bottom;" parent="CIGHaO0pslwHIIJhBkGo-109" connectable="0" vertex="1">
          <mxGeometry x="1" relative="1" as="geometry" />
        </mxCell>
        <mxCell id="CIGHaO0pslwHIIJhBkGo-111" value="" style="endArrow=none;html=1;rounded=0;" parent="1" source="CIGHaO0pslwHIIJhBkGo-58" target="CIGHaO0pslwHIIJhBkGo-107" edge="1">
          <mxGeometry relative="1" as="geometry">
            <mxPoint x="354" y="1100" as="sourcePoint" />
            <mxPoint x="70" y="907" as="targetPoint" />
          </mxGeometry>
        </mxCell>
        <mxCell id="CIGHaO0pslwHIIJhBkGo-112" value="N" style="resizable=0;html=1;whiteSpace=wrap;align=right;verticalAlign=bottom;" parent="CIGHaO0pslwHIIJhBkGo-111" connectable="0" vertex="1">
          <mxGeometry x="1" relative="1" as="geometry" />
        </mxCell>
        <mxCell id="CIGHaO0pslwHIIJhBkGo-113" value="Supervise" style="shape=rhombus;perimeter=rhombusPerimeter;whiteSpace=wrap;html=1;align=center;fillColor=#ffe6cc;strokeColor=#d79b00;" parent="1" vertex="1">
          <mxGeometry x="380" y="810" width="120" height="60" as="geometry" />
        </mxCell>
        <mxCell id="CIGHaO0pslwHIIJhBkGo-114" value="" style="endArrow=none;html=1;rounded=0;" parent="1" source="CIGHaO0pslwHIIJhBkGo-67" target="CIGHaO0pslwHIIJhBkGo-113" edge="1">
          <mxGeometry relative="1" as="geometry">
            <mxPoint x="10" y="685" as="sourcePoint" />
            <mxPoint x="500" y="840" as="targetPoint" />
          </mxGeometry>
        </mxCell>
        <mxCell id="CIGHaO0pslwHIIJhBkGo-115" value="M" style="resizable=0;html=1;whiteSpace=wrap;align=right;verticalAlign=bottom;" parent="CIGHaO0pslwHIIJhBkGo-114" connectable="0" vertex="1">
          <mxGeometry x="1" relative="1" as="geometry" />
        </mxCell>
        <mxCell id="CIGHaO0pslwHIIJhBkGo-116" value="" style="endArrow=none;html=1;rounded=0;" parent="1" source="CIGHaO0pslwHIIJhBkGo-58" target="CIGHaO0pslwHIIJhBkGo-113" edge="1">
          <mxGeometry relative="1" as="geometry">
            <mxPoint x="596" y="1050" as="sourcePoint" />
            <mxPoint x="265" y="847" as="targetPoint" />
          </mxGeometry>
        </mxCell>
        <mxCell id="CIGHaO0pslwHIIJhBkGo-117" value="N" style="resizable=0;html=1;whiteSpace=wrap;align=right;verticalAlign=bottom;" parent="CIGHaO0pslwHIIJhBkGo-116" connectable="0" vertex="1">
          <mxGeometry x="1" relative="1" as="geometry">
            <mxPoint y="20" as="offset" />
          </mxGeometry>
        </mxCell>
        <mxCell id="KiJpQxPRMV-0YFwfvy5l-2" value="Duration" style="ellipse;whiteSpace=wrap;html=1;align=center;fillColor=#fff2cc;strokeColor=#d6b656;" vertex="1" parent="1">
          <mxGeometry x="-420" y="1180" width="100" height="40" as="geometry" />
        </mxCell>
        <mxCell id="KiJpQxPRMV-0YFwfvy5l-4" value="" style="endArrow=none;html=1;rounded=0;" edge="1" parent="1" source="CIGHaO0pslwHIIJhBkGo-32" target="KiJpQxPRMV-0YFwfvy5l-2">
          <mxGeometry relative="1" as="geometry">
            <mxPoint x="-390" y="980" as="sourcePoint" />
            <mxPoint x="-230" y="980" as="targetPoint" />
          </mxGeometry>
        </mxCell>
        <mxCell id="KiJpQxPRMV-0YFwfvy5l-5" value="" style="endArrow=none;html=1;rounded=0;" edge="1" parent="1" source="CIGHaO0pslwHIIJhBkGo-32" target="KiJpQxPRMV-0YFwfvy5l-10">
          <mxGeometry relative="1" as="geometry">
            <mxPoint x="-390" y="980" as="sourcePoint" />
            <mxPoint x="-454.1886116991582" y="1151.0263340389893" as="targetPoint" />
          </mxGeometry>
        </mxCell>
        <mxCell id="KiJpQxPRMV-0YFwfvy5l-7" value="" style="endArrow=none;html=1;rounded=0;" edge="1" parent="1" source="CIGHaO0pslwHIIJhBkGo-67" target="KiJpQxPRMV-0YFwfvy5l-8">
          <mxGeometry relative="1" as="geometry">
            <mxPoint x="380" y="710" as="sourcePoint" />
            <mxPoint x="560" y="620" as="targetPoint" />
          </mxGeometry>
        </mxCell>
        <mxCell id="KiJpQxPRMV-0YFwfvy5l-8" value="ID" style="ellipse;whiteSpace=wrap;html=1;align=center;fontStyle=4;fillColor=#fff2cc;strokeColor=#d6b656;" vertex="1" parent="1">
          <mxGeometry x="550" y="600" width="100" height="40" as="geometry" />
        </mxCell>
        <mxCell id="KiJpQxPRMV-0YFwfvy5l-9" value="ID" style="ellipse;whiteSpace=wrap;html=1;align=center;fontStyle=4;fillColor=#fff2cc;strokeColor=#d6b656;" vertex="1" parent="1">
          <mxGeometry x="510" y="1115" width="100" height="40" as="geometry" />
        </mxCell>
        <mxCell id="KiJpQxPRMV-0YFwfvy5l-10" value="ID" style="ellipse;whiteSpace=wrap;html=1;align=center;fontStyle=4;fillColor=#fff2cc;strokeColor=#d6b656;direction=west;" vertex="1" parent="1">
          <mxGeometry x="-540" y="1160" width="100" height="40" as="geometry" />
        </mxCell>
        <mxCell id="KiJpQxPRMV-0YFwfvy5l-11" value="ID" style="ellipse;whiteSpace=wrap;html=1;align=center;fontStyle=4;fillColor=#fff2cc;strokeColor=#d6b656;" vertex="1" parent="1">
          <mxGeometry x="-150" y="555" width="100" height="40" as="geometry" />
        </mxCell>
      </root>
    </mxGraphModel>
  </diagram>
</mxfile>
